<?xml version="1.0"?>
<svg xmlns="http://www.w3.org/2000/svg" xmlns:xlink="http://www.w3.org/1999/xlink" xmlns:svgjs="http://svgjs.com/svgjs" version="1.1" width="512" height="512" x="0" y="0" viewBox="0 0 512.058 512.058" style="enable-background:new 0 0 512 512" xml:space="preserve" class=""><g><g xmlns="http://www.w3.org/2000/svg"><path d="m437.02 75.006c-47.991-47.988-111.678-74.566-179.484-74.962-.264-.009-.526-.014-.79-.01-141.182-.553-256.746 113.752-256.746 255.991 0 141.481 114.495 256 256 256 68.207 0 132.578-26.541 181.02-74.98 100.043-100.046 100.057-261.981 0-362.039zm-166.02 393.66v-91.7c23.32 1.526 45.993 6.606 67.37 14.97-17.354 29.108-40.145 55.28-67.37 76.73zm0-121.753v-75.888h105.107c-1.94 32.562-10.146 64.493-23.715 94.18-25.717-10.451-53.151-16.662-81.392-18.292zm0-105.888v-75.888c28.241-1.63 55.675-7.841 81.393-18.292 13.568 29.686 21.774 61.618 23.715 94.18zm0-105.94v-91.7c27.225 21.45 50.016 47.622 67.37 76.73-21.377 8.364-44.05 13.444-67.37 14.97zm37.731-98.833c34.519 8.282 65.978 24.504 92.337 46.624-11.108 9.323-22.986 17.485-35.476 24.428-15.234-26.116-34.379-50.143-56.861-71.052zm-67.731 8.731v90.102c-22.727-1.487-44.842-6.345-65.738-14.332 16.974-28.644 39.204-54.464 65.738-75.77zm-93.074 63.153c-13.045-7.121-25.436-15.56-36.994-25.26 27.042-22.692 59.45-39.184 95.024-47.257-23.016 21.278-42.565 45.813-58.03 72.517zm93.074 57.002v75.888h-103.1c1.927-32.316 10.023-64.01 23.409-93.505 25.226 10.04 52.07 16.022 79.691 17.617zm0 105.887v75.888c-27.621 1.595-54.465 7.577-79.69 17.617-13.386-29.495-21.482-61.19-23.409-93.505zm0 105.941v90.102c-26.534-21.306-48.764-47.126-65.738-75.77 20.896-7.987 43.011-12.845 65.738-14.332zm-35.044 99.466c-35.574-8.073-67.982-24.564-95.024-47.257 11.558-9.7 23.949-18.139 36.994-25.26 15.465 26.704 35.014 51.239 58.03 72.517zm159.637-71.685c12.489 6.942 24.367 15.104 35.476 24.428-26.359 22.12-57.818 38.342-92.337 46.624 22.481-20.909 41.626-44.936 56.861-71.052zm13.85-26.64c15.472-33.694 24.731-70.029 26.712-107.082h75.335c-3.472 52.714-25.086 100.549-58.658 137.295-13.506-11.631-28.037-21.742-43.389-30.213zm102.047-137.082h-75.335c-1.98-37.053-11.24-73.388-26.712-107.082 15.352-8.471 29.883-18.582 43.389-30.213 33.572 36.747 55.187 84.582 58.658 137.295zm-392.322-137.295c13.977 12.037 29.06 22.432 45.005 31.08-15.233 33.451-24.356 69.479-26.319 106.215h-77.344c3.471-52.713 25.086-100.548 58.658-137.295zm-58.658 167.295h77.344c1.963 36.736 11.086 72.764 26.319 106.215-15.945 8.648-31.028 19.043-45.005 31.08-33.572-36.746-55.187-84.581-58.658-137.295z" fill="#ffffff" data-original="#000000" style="" class=""/></g></g></svg>
